<svg width="12" height="16" viewBox="0 0 12 16" fill="none" xmlns="http://www.w3.org/2000/svg">
<path fill-rule="evenodd" clip-rule="evenodd" d="M9.85723 2.6667H11.1429C11.316 2.6667 11.4729 2.5582 11.5389 2.392C11.6058 2.2267 11.5689 2.0347 11.4464 1.90755L10.1606 0.57422C10.038 0.44711 9.85463 0.41067 9.69349 0.47822C9.53323 0.54667 9.42861 0.70933 9.42861 0.88889V2.2222C9.42861 2.4676 9.62059 2.6667 9.85723 2.6667ZM5.14294 8H9.42861V6.2222H5.14294V8ZM10.2858 5.7778C10.2858 5.5324 10.0938 5.3333 9.85723 5.3333H2.14296C1.90632 5.3333 1.71434 5.5324 1.71434 5.7778V13.7778C1.71434 14.0231 1.90632 14.2222 2.14296 14.2222H9.85723C10.0938 14.2222 10.2858 14.0231 10.2858 13.7778V5.7778ZM1.71434 2.6667C1.71434 3.1582 2.09831 3.5556 2.57149 3.5556H6.00009C6.47317 3.5556 6.85715 3.1582 6.85715 2.6667C6.85715 2.1751 6.47317 1.77778 6.00009 1.77778H2.57149C2.09831 1.77778 1.71434 2.1751 1.71434 2.6667ZM12.0001 4V14.3929C12.0001 15.2791 11.3538 16 10.5584 16H1.44173C0.646391 16 6.10352e-05 15.2791 6.10352e-05 14.3929V1.60711C6.10352e-05 0.72089 0.646391 0 1.44173 0H8.14293C8.37947 0 8.57145 0.19911 8.57145 0.44444V2.2222C8.57145 2.9573 9.14829 3.5556 9.85723 3.5556H11.5714C11.8081 3.5556 12.0001 3.7547 12.0001 4ZM2.57149 8H4.28579V6.2222H2.57149V8ZM5.14294 13.3333H9.42861V8.8889H5.14294V13.3333ZM2.57149 13.3333H4.28579V8.8889H2.57149V13.3333Z" fill="black"/>
</svg>
