<svg width="16" height="16" viewBox="0 0 16 16" fill="none" xmlns="http://www.w3.org/2000/svg">
<path fill-rule="evenodd" clip-rule="evenodd" d="M7.99991 0C3.58161 0 -9.15527e-05 3.5817 -9.15527e-05 8C-9.15527e-05 12.4183 3.58161 16 7.99991 16C12.4182 16 15.9999 12.4183 15.9999 8C15.995 3.5838 12.4161 0.0049 7.99991 0ZM7.99991 14.2222C4.56351 14.2222 1.77769 11.4364 1.77769 8C1.77769 4.5636 4.56351 1.77778 7.99991 1.77778C11.4363 1.77778 14.2221 4.5636 14.2221 8C14.2182 11.4348 11.4347 14.2183 7.99991 14.2222ZM10.6485 10.0138C10.7299 9.703 10.6372 9.3725 10.4061 9.1493L8.88881 7.632V4.4445C8.88881 3.9535 8.49081 3.5556 7.99991 3.5556C7.50901 3.5556 7.11101 3.9535 7.11101 4.4445V8C7.11111 8.2357 7.20471 8.4618 7.37151 8.6285L9.14921 10.4062C9.37241 10.6373 9.70291 10.73 10.0137 10.6486C10.3245 10.5673 10.5672 10.3246 10.6485 10.0138Z" fill="black"/>
</svg>
