<svg width="21" height="19" viewBox="0 0 21 19" fill="none" xmlns="http://www.w3.org/2000/svg">
<g clip-path="url(#clip0_408_1517)">
<path opacity="0.4" d="M12.25 17.2035V13.6562C12.25 13.4987 12.1885 13.3477 12.0791 13.2364C11.9697 13.125 11.8214 13.0625 11.6667 13.0625H9.33333C9.17862 13.0625 9.03025 13.125 8.92085 13.2364C8.81146 13.3477 8.75 13.4987 8.75 13.6562V17.208C8.75 17.3649 8.68894 17.5155 8.58018 17.6268C8.47141 17.738 8.32379 17.8009 8.16958 17.8017L4.08333 17.8125C3.92862 17.8125 3.78025 17.7499 3.67085 17.6386C3.56146 17.5272 3.5 17.3762 3.5 17.2187V11.135L10.2226 5.49995C10.3016 5.43513 10.4 5.39978 10.5015 5.39978C10.6029 5.39978 10.7014 5.43513 10.7804 5.49995L17.5 11.1328V17.2187C17.5 17.3762 17.4385 17.5272 17.3291 17.6386C17.2197 17.7499 17.0714 17.8125 16.9167 17.8125L12.8333 17.801C12.7564 17.801 12.6803 17.7855 12.6093 17.7554C12.5382 17.7253 12.4738 17.6813 12.4196 17.6258C12.3653 17.5702 12.3225 17.5043 12.2934 17.4319C12.2643 17.3594 12.2495 17.2818 12.25 17.2035Z" fill="#213F7D"/>
<path d="M20.9022 9.9583L19.9725 11.1087C19.936 11.1539 19.8911 11.1914 19.8404 11.2189C19.7897 11.2465 19.7341 11.2636 19.6769 11.2693C19.6197 11.275 19.5619 11.2691 19.5069 11.2521C19.4519 11.235 19.4008 11.2071 19.3564 11.1699L10.7803 3.9785C10.7013 3.91368 10.6029 3.87833 10.5014 3.87833C10.3999 3.87833 10.3015 3.91368 10.2225 3.9785L1.6468 11.1699C1.55717 11.2449 1.44193 11.2806 1.32645 11.2691C1.21097 11.2576 1.1047 11.1999 1.03102 11.1087L0.101337 9.9583C0.0274897 9.86725 -0.00781097 9.75008 0.0031962 9.63254C0.0142034 9.51501 0.0706173 9.40673 0.160035 9.33152L9.38761 1.5957C9.70085 1.33333 10.0939 1.18988 10.4996 1.18988C10.9053 1.18988 11.2983 1.33333 11.6116 1.5957L14.8749 4.32732V1.63281C14.8749 1.51471 14.921 1.40144 15.0031 1.31793C15.0851 1.23442 15.1964 1.1875 15.3124 1.1875H17.3541C17.4701 1.1875 17.5814 1.23442 17.6635 1.31793C17.7455 1.40144 17.7916 1.51471 17.7916 1.63281V6.77283L20.8395 9.33004C20.8843 9.367 20.9214 9.41261 20.9488 9.46425C20.9762 9.51588 20.9934 9.57252 20.9992 9.6309C21.005 9.68929 20.9994 9.74827 20.9828 9.80445C20.9662 9.86064 20.9388 9.91293 20.9022 9.9583Z" fill="#213F7D"/>
</g>
<defs>
<clipPath id="clip0_408_1517">
<rect width="21" height="19" fill="white"/>
</clipPath>
</defs>
</svg>
