<svg width="512" height="512" viewBox="0 0 512 512" fill="none" xmlns="http://www.w3.org/2000/svg">
<g clip-path="url(#clip0_458_833)">
<path d="M256 0C205.368 0 155.873 15.0141 113.774 43.1438C71.6751 71.2734 38.863 111.255 19.487 158.033C0.110921 204.811 -4.95873 256.284 4.91908 305.943C14.7969 355.602 39.1785 401.217 74.9808 437.019C110.783 472.822 156.398 497.203 206.057 507.081C255.716 516.959 307.189 511.889 353.967 492.513C400.745 473.137 440.727 440.325 468.856 398.226C496.986 356.127 512 306.632 512 256C511.927 188.127 484.932 123.055 436.938 75.0618C388.945 27.0683 323.873 0.0734097 256 0ZM256 448C218.026 448 180.905 436.739 149.331 415.642C117.756 394.545 93.1473 364.559 78.6152 329.475C64.0832 294.392 60.281 255.787 67.6893 218.543C75.0977 181.298 93.3839 147.087 120.236 120.236C147.087 93.3838 181.298 75.0976 218.543 67.6892C255.787 60.2809 294.392 64.0831 329.475 78.6151C364.559 93.1472 394.545 117.756 415.642 149.331C436.74 180.905 448 218.026 448 256C447.944 306.904 427.697 355.707 391.702 391.702C355.708 427.697 306.904 447.944 256 448ZM362.667 256C362.667 264.487 359.295 272.626 353.294 278.627C347.293 284.629 339.154 288 330.667 288H288V330.667C288 339.154 284.629 347.293 278.628 353.294C272.626 359.295 264.487 362.667 256 362.667C247.513 362.667 239.374 359.295 233.373 353.294C227.372 347.293 224 339.154 224 330.667V288H181.333C172.847 288 164.707 284.629 158.706 278.627C152.705 272.626 149.333 264.487 149.333 256C149.333 247.513 152.705 239.374 158.706 233.373C164.707 227.371 172.847 224 181.333 224H224V181.333C224 172.846 227.372 164.707 233.373 158.706C239.374 152.705 247.513 149.333 256 149.333C264.487 149.333 272.626 152.705 278.628 158.706C284.629 164.707 288 172.846 288 181.333V224H330.667C339.154 224 347.293 227.371 353.294 233.373C359.295 239.374 362.667 247.513 362.667 256Z" fill="#22285E"/>
</g>
<defs>
<clipPath id="clip0_458_833">
<rect width="512" height="512" fill="white"/>
</clipPath>
</defs>
</svg>
