<svg width="21" height="19" viewBox="0 0 21 19" fill="none" xmlns="http://www.w3.org/2000/svg">
<path opacity="0.4" d="M21 14.8438V16.0312C21 16.1887 20.9309 16.3397 20.8078 16.4511C20.6847 16.5624 20.5178 16.625 20.3438 16.625H1.3125C0.964403 16.625 0.630564 16.4999 0.384422 16.2772C0.138281 16.0545 0 15.7524 0 15.4375V2.96875C0 2.81128 0.0691404 2.66026 0.192211 2.54891C0.315282 2.43756 0.482202 2.375 0.65625 2.375H1.96875C2.1428 2.375 2.30972 2.43756 2.43279 2.54891C2.55586 2.66026 2.625 2.81128 2.625 2.96875V14.25H20.3438C20.5178 14.25 20.6847 14.3126 20.8078 14.4239C20.9309 14.5353 21 14.6863 21 14.8438Z" fill="#213F7D"/>
<path d="M11.2875 3.5625H9.7125C9.45 3.5625 9.1875 3.8 9.1875 4.0375V11.4C9.1875 11.6375 9.45 11.875 9.7125 11.875H11.2875C11.55 11.875 11.8125 11.6375 11.8125 11.4V4.0375C11.8125 3.8 11.55 3.5625 11.2875 3.5625ZM7.35 8.3125H5.775C5.5125 8.3125 5.25 8.55 5.25 8.7875V11.4C5.25 11.6375 5.5125 11.875 5.775 11.875H7.35C7.6125 11.875 7.875 11.6375 7.875 11.4V8.7875C7.875 8.55 7.6125 8.3125 7.35 8.3125ZM19.1625 2.375H17.5875C17.325 2.375 17.0625 2.6125 17.0625 2.85V11.4C17.0625 11.6375 17.325 11.875 17.5875 11.875H19.1625C19.425 11.875 19.6875 11.6375 19.6875 11.4V2.85C19.6875 2.6125 19.425 2.375 19.1625 2.375ZM15.225 5.9375H13.65C13.3875 5.9375 13.125 6.175 13.125 6.4125V11.4C13.125 11.6375 13.3875 11.875 13.65 11.875H15.225C15.4875 11.875 15.75 11.6375 15.75 11.4V6.4125C15.75 6.175 15.4875 5.9375 15.225 5.9375Z" fill="#213F7D"/>
</svg>
