<svg width="16" height="16" viewBox="0 0 16 16" fill="none" xmlns="http://www.w3.org/2000/svg">
<g clip-path="url(#clip0_408_1506)">
<path opacity="0.4" d="M5.625 14H3C2.20435 14 1.44129 13.6839 0.87868 13.1213C0.31607 12.5587 0 11.7956 0 11L0 5C0 4.20435 0.31607 3.44129 0.87868 2.87868C1.44129 2.31607 2.20435 2 3 2H5.625C5.72446 2 5.81984 2.03951 5.89016 2.10983C5.96049 2.18016 6 2.27554 6 2.375V3.625C6 3.72446 5.96049 3.81984 5.89016 3.89017C5.81984 3.96049 5.72446 4 5.625 4H3C2.73478 4 2.48043 4.10536 2.29289 4.29289C2.10536 4.48043 2 4.73478 2 5V11C2 11.2652 2.10536 11.5196 2.29289 11.7071C2.48043 11.8946 2.73478 12 3 12H5.625C5.72446 12 5.81984 12.0395 5.89016 12.1098C5.96049 12.1802 6 12.2755 6 12.375V13.625C6 13.7245 5.96049 13.8198 5.89016 13.8902C5.81984 13.9605 5.72446 14 5.625 14Z" fill="#213F7D"/>
<path d="M11.0313 2.75937L15.7781 7.46562C15.8485 7.53535 15.9044 7.61834 15.9425 7.7098C15.9807 7.80125 16.0003 7.89935 16.0003 7.99843C16.0003 8.09752 15.9807 8.19562 15.9425 8.28707C15.9044 8.37852 15.8485 8.46151 15.7781 8.53125L11.0281 13.2437C10.8868 13.383 10.6962 13.4608 10.4978 13.4602C10.2994 13.4596 10.1093 13.3807 9.96875 13.2406L9.28438 12.5562C9.21298 12.4844 9.15683 12.3989 9.1193 12.3048C9.08177 12.2107 9.06363 12.11 9.06596 12.0087C9.0683 11.9075 9.09106 11.8077 9.13289 11.7155C9.17472 11.6232 9.23475 11.5404 9.30938 11.4719L11.7344 9.25H5.75C5.65144 9.25024 5.5538 9.23101 5.4627 9.19341C5.37159 9.15581 5.28881 9.10057 5.21912 9.03088C5.14943 8.96118 5.09419 8.87841 5.05659 8.7873C5.01899 8.69619 4.99976 8.59856 5 8.5V7.5C4.99976 7.40143 5.01899 7.3038 5.05659 7.21269C5.09419 7.12158 5.14943 7.03881 5.21912 6.96911C5.28881 6.89942 5.37159 6.84419 5.4627 6.80658C5.5538 6.76898 5.65144 6.74975 5.75 6.75H11.7344L9.30938 4.52812C9.23516 4.45962 9.17555 4.37684 9.1341 4.28475C9.09266 4.19265 9.07025 4.09313 9.0682 3.99215C9.06616 3.89118 9.08453 3.79084 9.12222 3.69714C9.1599 3.60344 9.21612 3.51831 9.2875 3.44687L9.97188 2.7625C10.1121 2.62182 10.3023 2.54249 10.5009 2.5419C10.6995 2.54132 10.8902 2.61953 11.0313 2.75937Z" fill="#213F7D"/>
</g>
<defs>
<clipPath id="clip0_408_1506">
<rect width="16" height="16" fill="white"/>
</clipPath>
</defs>
</svg>
