<svg width="22" height="20" viewBox="0 0 22 20" fill="none" xmlns="http://www.w3.org/2000/svg">
<g clip-path="url(#clip0_408_1511)">
<path opacity="0.4" d="M21.3889 8.75H20.2617C19.9267 7.97494 19.4409 7.27772 18.834 6.70078L19.5555 3.75H18.3333C17.2104 3.75 16.2177 4.27734 15.5451 5.09063C15.256 5.04766 14.9676 5 14.6666 5H9.77774C6.15614 5 3.66663 8.08125 3.66663 11.25C3.66589 12.2204 3.88645 13.1776 4.31078 14.0456C4.73512 14.9136 5.35155 15.6684 6.11107 16.25V19.375C6.11107 19.5408 6.17546 19.6997 6.29006 19.8169C6.40467 19.9342 6.56011 20 6.72218 20H9.16663C9.3287 20 9.48414 19.9342 9.59875 19.8169C9.71335 19.6997 9.77774 19.5408 9.77774 19.375V17.5H14.6666V19.375C14.6666 19.5408 14.731 19.6997 14.8456 19.8169C14.9602 19.9342 15.1157 20 15.2777 20H17.7222C17.8843 20 18.0397 19.9342 18.1543 19.8169C18.2689 19.6997 18.3333 19.5408 18.3333 19.375V16.2219C18.7848 15.873 19.1869 15.4618 19.528 15H21.3889C21.5509 15 21.7064 14.9342 21.821 14.8169C21.9356 14.6997 22 14.5408 22 14.375V9.375C22 9.20924 21.9356 9.05027 21.821 8.93306C21.7064 8.81585 21.5509 8.75 21.3889 8.75ZM16.5 11.25C16.3791 11.25 16.2609 11.2133 16.1604 11.1447C16.0599 11.076 15.9816 10.9784 15.9354 10.8642C15.8891 10.75 15.877 10.6243 15.9006 10.5031C15.9242 10.3818 15.9824 10.2705 16.0678 10.1831C16.1533 10.0957 16.2622 10.0361 16.3807 10.012C16.4993 9.98789 16.6222 10.0003 16.7338 10.0476C16.8455 10.0949 16.9409 10.175 17.0081 10.2778C17.0752 10.3805 17.1111 10.5014 17.1111 10.625C17.1111 10.7908 17.0467 10.9497 16.9321 11.0669C16.8175 11.1842 16.662 11.25 16.5 11.25Z" fill="#213F7D"/>
<path d="M1.95785 9.98125C1.83988 9.95673 1.72778 9.90869 1.62796 9.83987C1.52815 9.77104 1.44256 9.68279 1.37609 9.58013C1.30963 9.47748 1.26359 9.36244 1.24059 9.24159C1.2176 9.12074 1.21811 8.99643 1.24209 8.87578C1.32688 8.43047 1.73403 8.125 2.17709 8.125H2.21528C2.27606 8.125 2.33435 8.10031 2.37733 8.05635C2.4203 8.0124 2.44445 7.95279 2.44445 7.89062V7.10938C2.44445 7.04721 2.4203 6.9876 2.37733 6.94365C2.33435 6.89969 2.27606 6.875 2.21528 6.875C1.12674 6.875 0.156599 7.67188 0.0179535 8.77422C0.00586679 8.86785 -0.000130192 8.9622 2.14294e-06 9.05664C-0.000707438 9.63756 0.224228 10.195 0.625337 10.6063C1.02645 11.0176 1.57088 11.2492 2.13889 11.25H3.66667C3.66707 10.8299 3.71021 10.411 3.79538 10H2.13889C2.07808 10 2.01743 9.99372 1.95785 9.98125ZM16.5 10C16.3791 10 16.261 10.0367 16.1605 10.1053C16.06 10.174 15.9817 10.2716 15.9354 10.3858C15.8892 10.5 15.8771 10.6257 15.9006 10.7469C15.9242 10.8682 15.9824 10.9795 16.0679 11.0669C16.1533 11.1544 16.2622 11.2139 16.3808 11.238C16.4993 11.2621 16.6222 11.2497 16.7339 11.2024C16.8455 11.1551 16.941 11.075 17.0081 10.9722C17.0753 10.8695 17.1111 10.7486 17.1111 10.625C17.1111 10.4592 17.0467 10.3003 16.9321 10.1831C16.8175 10.0658 16.6621 10 16.5 10ZM11.7066 1.13617e-07C11.1043 -0.000151494 10.5113 0.151426 9.97991 0.441337C9.44853 0.731247 8.99515 1.15056 8.65984 1.66223C8.32454 2.1739 8.11763 2.76216 8.05741 3.37503C7.99719 3.9879 8.0855 4.6065 8.31455 5.17617C8.79373 5.05829 9.28493 4.99915 9.77778 5H14.6667C14.829 5.00133 14.9911 5.01281 15.1521 5.03438C15.3535 4.46777 15.4185 3.85988 15.3415 3.26217C15.2645 2.66446 15.0478 2.09452 14.7097 1.60061C14.3717 1.1067 13.9223 0.703365 13.3995 0.424747C12.8768 0.14613 12.2961 0.000435655 11.7066 1.13617e-07Z" fill="#213F7D"/>
</g>
<defs>
<clipPath id="clip0_408_1511">
<rect width="22" height="20" fill="white"/>
</clipPath>
</defs>
</svg>
