<svg width="17" height="21" viewBox="0 0 17 21" fill="none" xmlns="http://www.w3.org/2000/svg">
<path d="M13.8126 6.93646V1.16595C13.8126 0.857499 13.7 0.559999 13.5008 0.341263C13.3016 0.122528 13.0316 0 12.7497 0H1.06282C0.476126 0 0 0.521723 0 1.16595V19.833C0 20.1425 0.11156 20.4389 0.310788 20.6576C0.510015 20.8764 0.780947 21 1.06282 21H12.7497C13.0316 21 13.3016 20.8764 13.5008 20.6576C13.7 20.4389 13.8126 20.1425 13.8126 19.833V15.1024H12.7497V19.833H1.06282V1.16595H12.7497V6.93646H13.8126Z" fill="#213F7D"/>
<path d="M2.125 16.3274H11.6873V17.4944H2.125V16.3274Z" fill="#213F7D"/>
<path d="M2.125 2.9115H11.6873V4.07854H2.125V2.9115Z" fill="#213F7D"/>
<path d="M6.10902 18.0774C5.81619 18.0774 5.57812 18.3388 5.57812 18.6614C5.57812 18.983 5.81619 19.2444 6.10902 19.2444H7.70274C7.99657 19.2444 8.23464 18.983 8.23464 18.6614C8.23464 18.3388 7.99658 18.0774 7.70274 18.0774H6.10902Z" fill="#213F7D"/>
<path d="M11.6866 7.51936H6.90549V5.1864L2.65625 8.10232L6.90549 11.0194V8.6864H11.6866V7.51936Z" fill="#213F7D"/>
<path d="M17.0002 11.0195L12.7499 8.10242V10.4365H7.96875V11.6024H12.7499V13.9365L17.0002 11.0195Z" fill="#213F7D"/>
</svg>
