<svg width="512" height="512" viewBox="0 0 512 512" fill="none" xmlns="http://www.w3.org/2000/svg">
<path d="M30.805 142.272C23.6617 144.313 17.1751 148.184 11.9871 153.502C6.79913 158.819 3.08952 165.399 1.22537 172.591C-0.638775 179.782 -0.592846 187.336 1.35861 194.504C3.31007 201.673 7.09942 208.207 12.3517 213.461L85.141 286.165V426.667H225.792L299.072 499.84C303.005 503.807 307.683 506.957 312.838 509.11C317.993 511.263 323.523 512.376 329.109 512.384C332.781 512.377 336.437 511.904 339.989 510.976C347.178 509.165 353.762 505.493 359.08 500.329C364.398 495.164 368.262 488.69 370.282 481.557L511.808 0.447998L30.805 142.272ZM42.6664 183.296L405.93 76.2027L127.85 353.835V268.501L42.6664 183.296ZM329.386 469.675L243.477 384H158.144L436.181 106.197L329.386 469.675Z" fill="#22285E"/>
</svg>
